<svg width="20" height="18" viewBox="0 0 20 18" fill="none" xmlns="http://www.w3.org/2000/svg">
<path d="M0.625 4.00001L19.375 3.88638C19.7203 3.88638 20 3.60669 20 3.26138V0.761383C20 0.41607 19.7203 0.136383 19.375 0.136383L0.625 0.250011C0.279687 0.250011 0 0.529698 0 0.87501V3.37501C0 3.72032 0.279687 4.00001 0.625 4.00001ZM19.375 7.12501H0.625C0.279687 7.12501 0 7.40469 0 7.75001V10.25C0 10.5953 0.279687 10.875 0.625 10.875H19.375C19.7203 10.875 20 10.5953 20 10.25V7.75001C20 7.40469 19.7203 7.12501 19.375 7.12501ZM19.375 13.8864L0.625 14C0.279687 14 0 14.2797 0 14.625V17.125C0 17.4703 0.279687 17.75 0.625 17.75L19.375 17.6364C19.7203 17.6364 20 17.3567 20 17.0114V14.5114C20 14.1661 19.7203 13.8864 19.375 13.8864Z" fill="#354036"/>
</svg>
